<svg width="797" height="692" viewBox="0 0 797 692" fill="none" xmlns="http://www.w3.org/2000/svg">
<path d="M174.519 346.594H699.122L612.439 508.021H88.2106L174.519 346.594Z" fill="#FF8989"/>
<path d="M622.625 508.021H87.8351L176.202 692H710.609L622.625 508.021Z" fill="#66786B"/>
<path d="M86.6834 162.614H611.286L524.603 324.041H0.375115L86.6834 162.614Z" fill="#66786B"/>
<path d="M534.79 324.041H0.000183105L88.3668 508.02H622.774L534.79 324.041Z" fill="#66786B"/>
<path d="M173.332 0H697.935L611.252 162.614H87.0236L173.332 0Z" fill="#66786B"/>
<path d="M622.625 162.614H87.8351L176.202 346.594H710.609L622.625 162.614Z" fill="#66786B"/>
<path d="M261.663 518.703H796.453L708.086 690.813H173.679L261.663 518.703Z" fill="#748679"/>
<path d="M707.656 0H173L261.344 174H795.618L707.656 0Z" fill="#B5C6AE"/>
<path d="M261.663 174.483H796.453L708.086 346.593H173.679L261.663 174.483Z" fill="#748679"/>
<path d="M708.086 346.594H173.297L261.663 518.704H796.07L708.086 346.594Z" fill="#B5C6AE"/>
</svg>
